<svg width="248" height="48" fill="none" xmlns="http://www.w3.org/2000/svg"><rect width="248" height="48" rx="4" fill="#0278FE"/><path d="M21.291 31h5.3c2.997 0 4.467-1.528 4.467-3.567 0-1.981-1.406-3.145-2.8-3.215v-.128c1.279-.3 2.289-1.195 2.289-2.787 0-1.95-1.406-3.394-4.244-3.394H21.29V31Zm2.372-1.982v-3.835h2.614c1.464 0 2.371.895 2.371 2.065 0 1.042-.715 1.77-2.435 1.77h-2.55Zm0-5.541v-3.612h2.397c1.393 0 2.115.735 2.115 1.745 0 1.15-.933 1.867-2.166 1.867h-2.346Zm15.614 3.394c0 1.495-1.068 2.237-2.09 2.237-1.113 0-1.854-.786-1.854-2.033v-5.893h-2.314v6.251c0 2.359 1.342 3.695 3.273 3.695 1.47 0 2.505-.774 2.953-1.873h.102V31h2.244v-9.818h-2.314v5.689Zm6.131 7.81c1.803 0 2.845-.926 3.4-2.492l3.945-10.994-2.474-.013-2.27 7.415h-.101l-2.263-7.415H43.19l3.56 10.023-.197.53c-.429 1.119-1.106 1.195-2.116.901L43.9 34.44c.313.128.876.243 1.508.243Zm18.318-13.5H61.79V18.83h-2.314v2.353h-1.394v1.79h1.394v5.458c-.013 1.848 1.33 2.755 3.068 2.704a4.649 4.649 0 0 0 1.361-.23l-.39-1.809c-.127.032-.39.09-.677.09-.582 0-1.048-.205-1.048-1.138v-5.075h1.936v-1.79Zm4.46 4.066c0-1.419.882-2.237 2.123-2.237 1.214 0 1.93.773 1.93 2.096V31h2.314v-6.251c0-2.372-1.342-3.695-3.382-3.695-1.508 0-2.467.684-2.92 1.796h-.116v-4.94h-2.263V31h2.314v-5.753ZM76.912 31h2.313v-9.818h-2.313V31Zm1.163-11.212c.735 0 1.336-.562 1.336-1.253 0-.696-.601-1.259-1.336-1.259-.742 0-1.342.563-1.342 1.26 0 .69.6 1.252 1.342 1.252Zm11.29 3.989c-.32-1.662-1.65-2.723-3.95-2.723-2.366 0-3.976 1.163-3.97 2.979-.006 1.431.876 2.377 2.762 2.767l1.674.352c.901.198 1.323.563 1.323 1.119 0 .67-.728 1.176-1.828 1.176-1.06 0-1.751-.46-1.95-1.343l-2.256.218c.288 1.802 1.803 2.87 4.213 2.87 2.454 0 4.186-1.272 4.193-3.132-.007-1.4-.908-2.257-2.761-2.66l-1.675-.357c-.997-.224-1.394-.57-1.387-1.138-.007-.665.728-1.125 1.694-1.125 1.067 0 1.63.581 1.808 1.227l2.11-.23Zm9.409 7.421c1.54 0 2.461-.722 2.883-1.547h.076V31h2.225v-6.571c0-2.595-2.116-3.375-3.989-3.375-2.064 0-3.65.92-4.16 2.71l2.16.307c.23-.671.882-1.246 2.013-1.246 1.074 0 1.662.55 1.662 1.515v.038c0 .665-.697.697-2.429.882-1.905.204-3.727.773-3.727 2.985 0 1.93 1.413 2.953 3.286 2.953Zm.6-1.7c-.964 0-1.655-.441-1.655-1.291 0-.889.774-1.26 1.81-1.407.606-.083 1.821-.236 2.121-.479v1.157c0 1.093-.882 2.02-2.275 2.02ZM106.286 31h2.314v-5.772c0-1.247.939-2.129 2.211-2.129.39 0 .876.07 1.074.135v-2.129a5.561 5.561 0 0 0-.831-.064c-1.125 0-2.065.64-2.422 1.777h-.103v-1.636h-2.243V31Zm12.566-9.818h-1.936V18.83h-2.314v2.352h-1.394v1.79h1.394v5.458c-.013 1.848 1.329 2.755 3.068 2.704a4.644 4.644 0 0 0 1.361-.23l-.39-1.809c-.127.032-.389.09-.677.09-.582 0-1.048-.205-1.048-1.138v-5.075h1.936v-1.79ZM122.813 31h2.416l1.841-6.635h.134L129.045 31h2.41l2.78-9.818h-2.365l-1.7 6.865h-.096l-1.764-6.865h-2.333l-1.764 6.903h-.09l-1.726-6.903h-2.358L122.813 31Zm17.057.192c2.876 0 4.705-2.026 4.705-5.063 0-3.042-1.829-5.075-4.705-5.075-2.876 0-4.705 2.033-4.705 5.075 0 3.037 1.829 5.063 4.705 5.063Zm.013-1.854c-1.592 0-2.372-1.419-2.372-3.215 0-1.796.78-3.235 2.372-3.235 1.566 0 2.346 1.439 2.346 3.235 0 1.796-.78 3.215-2.346 3.215ZM146.539 31h2.313v-5.772c0-1.247.94-2.129 2.212-2.129.39 0 .876.07 1.074.135v-2.129a5.561 5.561 0 0 0-.831-.064c-1.125 0-2.065.64-2.423 1.777h-.102v-1.636h-2.243V31Zm7.136 0h2.314v-3.298l.844-.902 3.004 4.2h2.768l-4.027-5.58 3.803-4.238h-2.704l-3.528 3.944h-.16v-7.217h-2.314V31Zm17.538.198c1.541 0 2.461-.722 2.883-1.547h.077V31h2.224v-6.571c0-2.595-2.115-3.375-3.988-3.375-2.065 0-3.65.92-4.161 2.71l2.16.307c.23-.671.882-1.246 2.014-1.246 1.073 0 1.661.55 1.661 1.515v.038c0 .665-.696.697-2.429.882-1.904.204-3.726.773-3.726 2.985 0 1.93 1.413 2.953 3.285 2.953Zm.601-1.7c-.965 0-1.655-.441-1.655-1.291 0-.889.773-1.26 1.809-1.407.607-.083 1.821-.236 2.122-.479v1.157c0 1.093-.882 2.02-2.276 2.02Zm14.67-5.721c-.32-1.662-1.649-2.723-3.95-2.723-2.365 0-3.976 1.163-3.97 2.979-.006 1.431.876 2.377 2.762 2.767l1.674.352c.902.198 1.324.563 1.324 1.119 0 .67-.729 1.176-1.829 1.176-1.061 0-1.751-.46-1.949-1.343l-2.257.218c.288 1.802 1.803 2.87 4.213 2.87 2.454 0 4.187-1.272 4.193-3.132-.006-1.4-.908-2.257-2.761-2.66l-1.675-.357c-.997-.224-1.394-.57-1.387-1.138-.007-.665.728-1.125 1.694-1.125 1.067 0 1.63.581 1.809 1.227l2.109-.23Zm17.444-5.868h-2.359v8.923h-.115l-6.162-8.923h-2.122V31h2.372v-8.917h.108L201.819 31h2.109V17.91ZM206.512 31h2.371v-5.561h5.44V23.45h-5.44v-3.554h6.015v-1.988h-8.386V31Zm9.971-11.103h4.047V31h2.352V19.897h4.046v-1.988h-10.445v1.988Z" fill="#fff"/></svg>